<?xml version="1.0" standalone="no"?>
<!DOCTYPE svg PUBLIC "-//W3C//DTD SVG 20010904//EN"
 "http://www.w3.org/TR/2001/REC-SVG-20010904/DTD/svg10.dtd">
<svg version="1.0" xmlns="http://www.w3.org/2000/svg"
 width="2048.000000pt" height="2048.000000pt" viewBox="0 0 2048.000000 2048.000000"
 preserveAspectRatio="xMidYMid meet">

<g transform="translate(0.000000,2048.000000) scale(0.100000,-0.100000)"
fill="#000000" stroke="none">
<path d="M8960 18898 c-150 -17 -297 -41 -380 -60 -47 -11 -96 -22 -108 -24
-108 -21 -406 -117 -607 -196 -141 -55 -444 -213 -523 -273 -39 -29 -100 -91
-146 -148 -43 -54 -95 -109 -115 -121 -20 -13 -142 -61 -271 -109 -609 -222
-730 -295 -730 -437 0 -91 291 -571 476 -786 86 -99 147 -131 353 -185 67 -18
75 -19 97 -4 14 9 32 34 40 56 40 98 213 195 434 244 36 8 96 21 133 29 37 8
73 13 80 11 7 -3 52 -9 102 -15 l89 -10 68 -67 c85 -84 121 -139 153 -233 32
-95 32 -130 -1 -170 -36 -42 -61 -53 -184 -83 -185 -45 -408 -72 -540 -64
-108 6 -152 17 -203 51 -60 41 -68 40 -123 -12 -27 -26 -85 -68 -129 -92 -43
-25 -87 -57 -99 -73 -18 -25 -19 -32 -8 -73 27 -99 260 -434 402 -576 113
-114 187 -151 300 -152 75 -1 77 0 176 58 54 33 124 76 154 96 83 55 148 83
206 88 48 4 56 1 107 -36 65 -49 96 -89 104 -136 5 -31 -5 -52 -94 -193 -112
-178 -302 -427 -348 -454 -59 -36 -92 -27 -309 85 -111 57 -295 152 -411 211
-115 59 -228 118 -250 130 -96 54 -1420 716 -1520 760 -175 76 -370 137 -495
154 -308 41 -377 45 -585 28 -110 -9 -283 -21 -385 -28 -236 -15 -276 -29
-435 -157 -190 -153 -353 -337 -426 -480 -58 -115 -66 -169 -40 -273 25 -99
121 -300 158 -329 35 -27 72 -25 205 10 100 26 132 29 283 32 l171 3 59 -30
c91 -46 130 -115 150 -267 4 -30 16 -59 31 -78 22 -26 33 -30 75 -30 76 0 242
-28 302 -50 31 -12 105 -53 166 -93 60 -40 148 -96 195 -125 46 -30 133 -94
192 -144 60 -50 119 -97 132 -106 25 -16 52 -62 52 -87 0 -22 -53 -42 -150
-55 -101 -13 -193 -26 -315 -45 -129 -19 -218 -32 -315 -46 -402 -55 -966
-207 -1205 -326 -120 -59 -237 -143 -273 -195 -93 -136 -235 -448 -288 -633
-60 -210 -47 -323 56 -495 58 -96 147 -208 196 -245 30 -23 40 -25 81 -19 26
4 69 20 97 36 74 44 252 131 326 161 113 45 219 68 307 69 113 0 149 -22 229
-136 32 -47 67 -88 76 -91 9 -3 61 8 115 24 93 29 111 31 368 40 149 6 392 16
540 22 505 21 1489 -5 1740 -45 352 -57 507 -122 758 -320 159 -125 435 -366
436 -380 1 -5 -13 -32 -31 -60 -145 -235 -666 -1143 -858 -1496 -627 -1153
-729 -1381 -770 -1725 -12 -101 -11 -145 21 -721 14 -256 4 -281 -141 -324
-41 -13 -94 -29 -118 -36 -42 -14 -97 -24 -327 -64 -174 -30 -334 -59 -410
-74 -38 -8 -99 -19 -135 -26 -36 -6 -96 -18 -135 -25 -38 -7 -101 -19 -140
-26 -70 -12 -222 -54 -303 -83 -181 -65 -287 -183 -342 -378 -19 -68 -63 -308
-75 -409 -3 -24 -10 -73 -15 -109 -31 -231 -50 -429 -50 -539 0 -89 2 -101 19
-111 28 -14 153 -12 268 4 54 8 145 20 203 26 58 6 137 16 175 21 109 14 1316
16 1560 2 116 -7 323 -17 460 -23 253 -10 762 -34 1065 -49 191 -9 288 -1 307
25 14 19 12 74 -9 224 -6 41 -12 280 -15 531 l-5 455 25 73 c49 140 39 127
647 798 52 58 127 140 165 183 39 43 142 157 230 255 88 97 189 209 225 249
36 41 126 140 200 221 74 81 178 196 230 255 353 397 446 490 490 490 37 0 64
-17 306 -197 121 -89 302 -224 404 -299 467 -344 784 -578 955 -704 360 -267
548 -344 908 -369 130 -10 163 -21 205 -71 48 -56 74 -194 50 -265 -19 -57
-58 -78 -190 -104 -62 -12 -142 -29 -178 -37 -36 -8 -85 -19 -110 -23 -330
-64 -486 -109 -581 -167 -102 -62 -192 -183 -238 -319 -30 -92 -71 -312 -100
-540 -6 -44 -17 -132 -25 -195 -39 -296 -42 -413 -15 -447 15 -18 154 -17 484
2 143 8 375 19 515 25 140 6 334 15 430 20 219 13 347 13 520 0 74 -5 232 -14
350 -20 118 -6 325 -17 460 -25 135 -8 308 -19 386 -23 77 -5 165 -6 194 -2
61 8 45 -7 225 216 157 195 314 363 452 486 144 127 163 153 163 222 0 108
-138 453 -398 996 -63 131 -330 643 -405 777 -24 43 -63 114 -87 158 -276 516
-845 1433 -1118 1805 -31 41 -79 107 -108 146 -75 102 -111 171 -125 239 -10
53 -10 67 5 113 20 59 42 84 176 197 266 223 695 684 815 875 71 113 129 256
167 410 20 85 17 421 -6 535 -22 109 -77 304 -113 400 -72 192 -335 760 -728
1575 -81 168 -185 386 -230 485 -258 561 -291 641 -374 910 -78 254 -105 372
-123 550 -10 106 -9 138 5 240 28 194 113 411 205 524 45 55 137 115 207 136
29 8 88 15 130 15 145 0 185 -52 204 -265 19 -211 40 -314 108 -520 82 -253
150 -396 274 -583 216 -325 603 -684 896 -831 51 -25 75 -31 128 -31 115 0
125 29 75 226 -17 65 -55 214 -85 329 -30 116 -106 416 -169 667 -210 831
-261 1005 -352 1197 -114 242 -303 410 -589 524 -605 242 -1140 72 -1497 -473
-52 -80 -112 -173 -134 -208 l-39 -63 -40 6 c-78 12 -437 314 -626 527 -181
204 -245 310 -284 468 -14 58 -33 116 -44 130 -28 39 -187 121 -359 185 -86
32 -323 120 -527 196 -650 242 -1013 346 -1400 404 -60 9 -132 21 -158 26 -55
10 -111 10 -217 -3z m250 -199 c177 -30 452 -102 870 -228 576 -173 926 -300
1094 -396 113 -64 137 -96 178 -238 53 -184 128 -332 263 -519 79 -111 449
-475 644 -636 264 -216 298 -255 340 -379 58 -171 147 -882 186 -1488 35 -543
8 -754 -109 -834 -71 -49 -149 -74 -472 -150 -560 -133 -981 -247 -1071 -291
-239 -117 -267 -340 -80 -635 17 -27 345 -441 727 -920 1191 -1489 1593 -2019
2067 -2730 661 -991 1345 -2201 1653 -2925 126 -296 128 -330 30 -401 -89 -64
-260 -243 -421 -439 l-164 -200 -135 0 c-74 0 -601 16 -1170 35 l-1035 34
-300 -23 c-328 -25 -370 -25 -387 7 -26 50 12 296 101 651 45 180 74 240 154
323 98 102 144 119 602 212 368 75 378 78 452 113 49 23 68 38 87 71 77 133
38 352 -88 485 -45 49 -65 57 -322 132 l-233 67 -108 79 c-250 180 -1027 789
-2023 1584 -382 305 -707 563 -722 573 -35 22 -58 22 -58 -2 0 -23 23 -53 122
-160 l78 -83 -21 -27 c-31 -41 -69 -101 -69 -111 0 -5 -11 -21 -23 -37 -13
-15 -37 -50 -52 -78 -16 -27 -34 -53 -40 -57 -5 -4 -6 -8 -2 -8 4 0 -6 -20
-23 -44 -16 -25 -30 -47 -30 -51 0 -4 -20 -34 -44 -68 -38 -54 -56 -85 -111
-188 -5 -11 -13 -19 -17 -19 -5 0 -8 -5 -8 -11 0 -6 -13 -28 -30 -49 -16 -21
-30 -43 -30 -48 0 -6 -20 -39 -43 -74 -24 -35 -50 -75 -58 -90 -28 -52 -104
-173 -116 -186 -7 -7 -13 -18 -13 -23 0 -9 -96 -158 -109 -169 -3 -3 -17 -25
-31 -50 -58 -106 -118 -205 -137 -225 -7 -8 -13 -16 -13 -19 0 -8 -109 -186
-136 -221 -13 -18 -24 -35 -24 -39 0 -3 -16 -29 -36 -57 -20 -28 -30 -48 -23
-43 13 7 -116 -135 -495 -545 -217 -236 -263 -296 -325 -416 -71 -139 -82
-204 -80 -470 1 -126 6 -321 12 -433 7 -166 7 -205 -4 -219 -20 -24 -10 -24
-1722 97 -609 43 -1141 18 -1571 -75 -169 -36 -190 -36 -202 9 -6 27 44 344
86 534 34 157 74 291 102 346 33 65 112 141 185 176 83 41 479 123 1132 234
240 41 460 83 490 92 69 23 116 67 131 124 14 49 10 286 -11 665 -14 260 -7
461 20 571 11 45 58 165 107 270 47 104 133 293 191 419 240 528 586 1165
1011 1855 298 485 337 542 422 614 43 37 62 46 106 52 30 3 66 2 84 -4 16 -6
30 -9 30 -7 0 2 -125 91 -277 198 -680 474 -1081 700 -1286 727 -110 13 -1416
21 -1907 11 -429 -9 -438 -10 -670 -46 -314 -49 -324 -50 -336 -34 -6 8 -18
34 -27 59 -23 63 -70 116 -131 148 -47 25 -60 27 -166 26 -106 0 -124 -3 -225
-38 -60 -20 -178 -72 -261 -116 -88 -46 -170 -81 -196 -85 -44 -7 -45 -6 -90
44 -71 78 -83 111 -82 216 1 107 30 200 150 483 90 212 111 249 183 326 46 48
78 69 176 116 288 140 602 222 1185 310 159 24 608 66 616 57 3 -2 -60 -14
-138 -26 -422 -65 -643 -102 -681 -112 l-42 -12 33 -10 c17 -5 32 -14 32 -19
0 -5 4 -7 9 -3 5 3 12 1 16 -5 4 -6 11 -8 16 -5 5 4 9 1 9 -6 0 -7 3 -10 6 -7
3 4 33 -6 67 -22 34 -15 81 -36 104 -46 23 -9 39 -22 36 -27 -3 -5 4 -4 16 2
17 10 21 9 21 -4 0 -9 6 -15 13 -14 6 2 28 -5 47 -13 45 -20 94 -41 100 -43
23 -6 90 -41 90 -47 0 -4 6 -5 14 -2 7 3 21 -2 30 -11 9 -9 25 -17 36 -18 11
-1 20 -5 20 -10 0 -4 5 -5 10 -2 6 3 10 1 10 -5 0 -6 5 -8 10 -5 6 4 18 1 26
-6 9 -7 23 -14 32 -16 9 -1 21 -8 27 -15 5 -7 15 -13 20 -14 24 -1 65 -17 65
-25 0 -5 3 -8 8 -7 7 1 21 -4 87 -32 22 -10 50 -21 63 -24 12 -4 22 -12 22
-17 0 -6 4 -8 8 -5 8 5 31 -4 152 -62 41 -20 77 -36 80 -37 3 0 11 -4 18 -8 7
-5 23 -10 36 -13 35 -6 77 -30 68 -39 -4 -5 -2 -6 3 -2 6 3 31 -4 55 -15 25
-12 50 -22 55 -23 6 -1 27 -9 47 -18 21 -9 42 -17 48 -17 5 0 10 -4 10 -8 0
-14 121 -14 347 -1 247 15 251 14 331 -81 144 -171 322 -367 322 -355 0 3 19
-5 43 -19 23 -13 61 -29 85 -36 23 -6 42 -15 42 -21 0 -6 5 -7 10 -4 6 3 10 1
10 -5 0 -7 7 -10 15 -6 8 3 15 2 15 -3 0 -5 10 -12 23 -16 72 -23 115 -41 131
-54 9 -7 16 -10 16 -6 0 4 6 2 13 -4 8 -6 47 -25 88 -41 40 -17 84 -40 96 -52
13 -12 23 -19 23 -16 0 4 -55 55 -122 116 -227 202 -510 472 -1043 996 -903
888 -976 958 -1110 1066 -247 198 -493 341 -675 393 -47 13 -148 32 -225 42
-83 10 -147 23 -156 32 -10 8 -19 37 -22 74 -5 43 -18 80 -48 134 -37 69 -45
77 -102 105 -111 54 -183 58 -462 22 -255 -32 -333 -31 -362 6 -27 35 -56 152
-50 203 8 63 55 151 118 222 119 134 372 345 489 407 93 50 649 78 910 46 253
-31 408 -73 660 -178 131 -55 875 -426 1990 -992 l405 -206 80 0 c91 0 143 19
186 66 54 60 315 403 382 504 80 119 105 176 114 260 12 122 -60 263 -167 328
-141 84 -237 71 -461 -60 -68 -41 -166 -93 -218 -117 -90 -41 -97 -43 -142
-33 -69 16 -115 48 -174 119 -38 47 -55 78 -66 121 -16 66 -17 294 -1 360 9
37 8 44 -8 52 -10 6 -26 10 -35 10 -20 0 -165 -97 -165 -110 0 -6 -4 -10 -10
-10 -5 0 -10 8 -10 18 0 26 159 144 185 138 11 -3 47 -15 80 -27 98 -37 296
-38 500 -4 198 33 419 102 457 143 41 44 52 73 51 142 -1 103 -64 244 -175
392 -93 124 -115 144 -204 185 -83 38 -150 39 -363 8 -262 -38 -395 -90 -514
-204 l-57 -54 -33 23 c-96 70 -117 89 -166 149 -30 37 -65 88 -80 114 -24 44
-28 47 -56 42 -50 -9 -100 -39 -99 -58 2 -22 80 -153 113 -190 14 -16 55 -44
91 -63 36 -19 54 -32 40 -28 -85 22 -167 95 -230 203 -28 47 -50 94 -50 103 0
13 114 62 485 210 267 106 481 194 476 196 -15 5 -432 -137 -621 -210 -91 -36
-204 -75 -252 -88 -82 -21 -89 -22 -112 -6 -29 18 -64 68 -130 183 -40 69 -47
89 -44 125 l3 43 112 55 c62 31 190 84 285 119 95 35 246 91 335 124 l162 60
78 82 c43 45 103 110 133 145 159 185 706 427 1185 524 293 60 434 68 625 35z
m2401 -892 c19 -52 60 -130 100 -193 75 -115 75 -114 20 -167 l-29 -29 -52 74
c-65 92 -146 255 -161 325 l-12 54 39 40 39 40 12 -28 c6 -15 26 -67 44 -116z
m2144 -156 c-4 -23 27 -31 129 -31 90 0 250 -23 349 -49 328 -88 497 -237 618
-543 11 -28 70 -243 130 -477 61 -234 141 -543 179 -686 77 -292 250 -969 250
-978 0 -23 -206 98 -343 201 -119 90 -324 285 -410 392 -309 384 -457 819
-457 1350 0 96 -5 192 -10 212 -14 51 -59 92 -128 119 -87 34 -285 39 -406 10
-258 -61 -443 -257 -530 -561 -33 -116 -46 -236 -46 -419 0 -121 -3 -152 -12
-143 -15 15 -31 16 -22 0 4 -7 3 -8 -4 -4 -7 4 -12 14 -12 22 0 8 -2 14 -4 14
-2 0 -13 3 -23 6 -16 6 -16 5 2 -10 l20 -17 -20 10 c-11 5 -29 17 -40 25 l-20
16 20 -5 c11 -3 8 1 -8 8 -15 7 -24 17 -20 22 5 4 2 5 -5 1 -7 -4 -20 -5 -30
-1 -14 5 -14 7 -2 15 11 7 6 10 -19 10 -25 0 -32 4 -28 14 4 10 1 13 -9 9 -9
-3 -14 0 -12 8 2 9 -5 14 -20 13 -13 0 -37 12 -54 28 -16 15 -35 25 -41 21 -6
-4 -8 0 -4 10 7 19 -9 33 -17 15 -15 -32 8 220 29 328 63 313 188 574 366 759
187 194 398 301 606 304 56 1 61 -1 58 -18z m218 -522 c44 -12 49 -21 45 -78
l-3 -42 -41 31 c-64 47 -114 60 -227 60 -55 0 -98 2 -96 5 3 2 30 11 60 19 64
17 208 20 262 5z m-9504 -2530 c54 -11 214 -89 253 -121 18 -16 24 -28 19 -41
-6 -16 -19 -10 -115 47 -121 73 -167 90 -276 107 -109 16 -116 33 -11 25 47
-4 105 -11 130 -17z m8539 -226 c11 -10 77 -128 147 -263 125 -240 360 -679
455 -849 167 -302 396 -767 430 -876 31 -99 31 -239 1 -319 -86 -230 -330
-432 -798 -662 -220 -108 -343 -143 -443 -125 -119 22 -182 65 -288 196 -37
45 -107 128 -157 185 -49 56 -115 133 -145 170 -30 37 -98 117 -150 177 -52
60 -167 195 -255 299 -88 103 -178 209 -200 234 -164 182 -196 242 -203 372
-4 76 -2 92 20 140 50 108 125 164 299 222 57 19 156 54 219 76 63 23 142 50
175 61 96 33 527 200 565 219 53 28 137 106 166 156 39 67 54 137 55 269 0 66
4 160 7 208 6 77 10 92 31 108 29 24 43 24 69 2z m-7885 -680 c-7 -2 -19 -2
-25 0 -7 3 -2 5 12 5 14 0 19 -2 13 -5z m6335 -218 c12 -14 22 -27 22 -29 0
-2 15 -28 34 -56 l34 -52 -57 -48 c-68 -57 -109 -107 -144 -175 -31 -62 -57
-148 -57 -189 l0 -31 -21 30 c-77 111 -193 294 -201 317 -12 34 5 98 36 136
34 39 111 79 198 102 101 26 130 25 156 -5z m2625 -779 c3 3 3 -3 0 -14 -4
-17 4 -25 40 -41 24 -11 47 -27 51 -36 3 -8 11 -15 17 -15 7 0 5 8 -6 20 -10
11 -13 20 -7 20 7 0 12 -4 12 -10 0 -5 6 -9 13 -7 7 1 11 -6 9 -18 -1 -13 7
-24 25 -32 36 -17 41 -8 6 12 -26 15 -26 15 -3 9 14 -4 28 -12 32 -18 4 -6 11
-11 15 -11 15 0 73 -49 73 -61 0 -16 28 -26 33 -11 3 9 8 9 18 0 9 -10 10 -13
1 -13 -7 0 -12 -5 -12 -11 0 -5 4 -8 9 -4 5 3 13 0 16 -6 4 -5 12 -8 19 -6 7
3 23 -2 37 -10 l24 -14 -30 5 c-28 5 -28 5 -7 -6 12 -6 22 -14 22 -18 0 -3 16
-12 35 -20 19 -8 35 -17 35 -22 0 -4 9 -12 20 -18 16 -9 19 -8 14 7 -5 16 -4
16 10 -1 11 -14 16 -15 16 -6 0 11 3 11 12 2 10 -10 10 -15 -1 -21 -10 -7 -10
-10 -1 -16 7 -4 16 -1 21 6 6 11 9 8 9 -8 0 -12 5 -25 12 -29 6 -4 8 -3 4 4
-3 6 -2 13 2 16 18 11 55 -187 60 -325 5 -161 -10 -254 -65 -391 -69 -173
-164 -307 -358 -507 -128 -132 -220 -210 -515 -439 -118 -92 -236 -188 -263
-213 -37 -36 -49 -43 -56 -32 -4 8 -12 14 -17 14 -23 -2 -45 12 -40 25 3 9 1
12 -4 9 -6 -3 -10 0 -10 7 0 9 -3 9 -10 -2 -9 -14 -15 -7 -11 14 1 5 -5 6 -14
3 -9 -4 -15 -1 -15 8 0 8 -6 12 -14 9 -8 -3 -17 0 -22 7 -5 8 -3 10 6 4 9 -5
11 -4 6 4 -4 6 -13 11 -19 10 -20 -3 -50 13 -38 21 7 4 2 11 -14 18 -20 9 -24
9 -19 1 4 -7 -8 -3 -26 7 -18 10 -34 24 -37 31 -5 14 -106 93 -118 93 -9 0 21
-27 52 -47 10 -7 13 -12 6 -12 -7 -1 -30 16 -51 37 -41 40 -107 92 -117 92 -4
0 3 -9 16 -20 l24 -20 -33 16 c-18 9 -30 19 -27 24 6 10 -29 33 -37 25 -6 -6
-122 141 -318 400 -79 105 -175 228 -215 275 -81 97 -207 252 -450 555 -92
116 -175 219 -184 229 -9 11 -11 16 -4 13 19 -12 655 -792 737 -904 76 -105
234 -228 334 -260 51 -16 58 -16 161 4 117 23 213 63 431 179 145 76 597 400
662 473 138 155 190 310 168 500 -14 113 -41 199 -115 363 -30 66 -49 115 -41
109 7 -6 15 -8 19 -5z m22 -26 c3 -5 1 -10 -4 -10 -6 0 -11 5 -11 10 0 6 2 10
4 10 3 0 8 -4 11 -10z m54 -27 c2 -2 -3 -3 -11 -3 -9 0 -19 7 -22 16 -6 15 -4
15 11 3 10 -7 20 -15 22 -16z m401 -259 c0 -2 -7 -4 -15 -4 -8 0 -15 4 -15 10
0 5 7 7 15 4 8 -4 15 -8 15 -10z m17 -26 c-3 -8 -6 -5 -6 6 -1 11 2 17 5 13 3
-3 4 -12 1 -19z m-11280 -182 c0 -14 -329 -180 -380 -192 -21 -5 -34 -1 -53
17 -34 31 -30 42 9 23 32 -15 33 -15 182 58 242 119 242 119 242 94z m2490
-43 c45 -3 80 -10 77 -15 -3 -4 -10 -6 -15 -3 -5 4 -9 1 -9 -4 0 -8 -104 -11
-330 -11 -229 0 -410 -6 -592 -19 -145 -11 -400 -27 -568 -36 -168 -10 -313
-21 -322 -26 -15 -8 -37 5 -27 16 2 2 125 22 272 45 256 39 284 42 585 49 423
10 828 12 929 4z m7247 -1462 c-2 -3 -12 3 -22 13 -16 17 -16 18 5 5 12 -7 20
-15 17 -18z m-2204 -1995 c138 -111 205 -170 186 -163 -16 6 -17 5 -6 -8 8
-10 9 -15 1 -15 -7 0 -8 -8 -2 -22 5 -13 6 -31 2 -40 -5 -14 -26 -3 -123 65
-64 45 -133 97 -152 115 -34 31 -36 36 -36 98 l0 66 28 -18 c15 -9 61 -45 102
-78z m-5183 -3406 c-1 -22 -6 -40 -11 -40 -16 0 16 -29 37 -33 12 -2 -27 -5
-88 -6 -60 0 -227 -4 -371 -8 l-260 -6 1 48 c0 45 3 49 30 57 48 14 245 25
462 27 l203 1 -3 -40z m7322 -19 c25 -1 32 -5 27 -16 -3 -8 1 -21 9 -29 12
-12 7 -15 -38 -20 -90 -10 -430 -36 -479 -36 l-48 0 0 39 c0 22 5 43 12 47 11
7 350 21 438 17 25 -1 60 -2 79 -2z"/>
<path d="M8090 18154 c-277 -72 -322 -87 -362 -125 -29 -27 -38 -44 -38 -68 0
-74 31 -86 136 -52 98 32 101 32 49 7 -86 -43 -33 -28 167 44 233 85 282 108
286 138 3 20 1 21 -21 13 -27 -10 -37 0 -37 39 0 37 -46 38 -180 4z"/>
<path d="M8973 17577 c41 -12 103 -57 80 -57 -4 0 8 -8 27 -18 35 -17 46 -25
95 -68 14 -14 31 -21 37 -18 6 4 8 3 5 -2 -3 -5 14 -27 39 -48 24 -21 41 -43
37 -49 -3 -5 -2 -7 4 -4 6 4 21 -5 33 -18 13 -14 31 -25 39 -25 14 0 14 -2 1
-11 -13 -9 -13 -10 0 -6 9 2 23 -9 33 -26 10 -16 21 -27 24 -24 9 9 -82 120
-176 217 -71 72 -104 97 -162 125 -41 19 -94 37 -119 40 l-45 5 48 -13z"/>
<path d="M9550 17046 c0 -2 8 -10 18 -17 15 -13 16 -12 3 4 -13 16 -21 21 -21
13z"/>
<path d="M9595 16990 c10 -11 20 -20 23 -20 3 0 -3 9 -13 20 -10 11 -20 20
-23 20 -3 0 3 -9 13 -20z"/>
<path d="M9620 16956 c0 -2 8 -10 18 -17 15 -13 16 -12 3 4 -13 16 -21 21 -21
13z"/>
<path d="M9766 16757 c3 -10 9 -15 12 -12 3 3 0 11 -7 18 -10 9 -11 8 -5 -6z"/>
<path d="M9804 16709 c9 -14 13 -29 9 -32 -3 -4 -1 -7 6 -7 7 0 9 -4 6 -10 -3
-5 -1 -10 6 -10 7 0 9 -3 6 -6 -4 -4 3 -15 15 -25 11 -11 16 -19 10 -19 -6 0
0 -11 13 -25 13 -15 22 -36 21 -50 -2 -15 1 -22 10 -18 8 3 11 -4 10 -22 -3
-18 1 -25 10 -21 9 3 11 0 7 -11 -5 -12 -3 -14 8 -8 12 7 12 6 1 -7 -9 -12
-10 -17 -1 -20 6 -2 12 -15 12 -30 1 -14 6 -26 12 -25 5 1 11 -8 13 -21 2 -12
7 -20 12 -17 4 3 8 -1 7 -8 -1 -32 4 -48 13 -42 7 4 9 -3 6 -19 -3 -15 0 -26
6 -26 6 0 8 -9 5 -20 -3 -10 -1 -20 4 -22 5 -2 10 -14 13 -28 2 -14 5 -27 6
-30 2 -3 2 -9 1 -14 -1 -4 4 -14 10 -22 6 -8 13 -24 14 -37 1 -12 3 -28 4 -35
0 -7 6 -10 12 -6 8 4 9 -1 4 -15 -4 -12 -2 -28 5 -36 6 -8 10 -22 9 -32 -1
-10 3 -31 10 -47 6 -16 11 -36 9 -45 -1 -9 3 -26 10 -38 10 -19 10 -23 0 -23
-8 0 -9 -3 -3 -8 6 -4 11 -16 11 -27 2 -24 11 -96 23 -180 12 -87 12 -107 -2
-98 -9 5 -9 3 -1 -8 11 -15 11 -338 0 -414 -4 -22 -7 -125 -9 -228 l-2 -188
63 133 c107 225 208 458 248 573 35 101 38 121 42 240 3 114 0 142 -21 225
-14 52 -42 136 -64 186 -40 93 -164 307 -231 401 l-37 51 2 -100 c4 -121 6
-121 -97 29 -122 178 -317 439 -256 342z"/>
<path d="M8090 13850 c0 -5 -7 -10 -16 -10 -8 0 -12 -5 -9 -10 5 -8 12 -7 23
2 14 11 15 10 9 -7 -7 -20 -7 -20 8 -1 13 17 15 18 15 3 0 -9 -6 -18 -12 -19
-36 -4 -44 -3 -50 7 -5 6 -8 5 -8 -3 0 -7 7 -15 15 -18 8 -4 12 -10 9 -15 -3
-5 -14 1 -24 13 -17 20 -19 20 -20 6 0 -10 6 -18 13 -18 9 0 9 -3 -1 -9 -10
-6 11 -24 72 -62 358 -223 1080 -699 1328 -875 495 -351 876 -638 1133 -854
50 -42 153 -127 230 -190 147 -120 412 -357 455 -406 l25 -29 -25 20 c-30 25
-83 71 -128 110 l-34 31 -65 -67 c-50 -52 -69 -66 -86 -62 -15 3 -18 2 -9 -5
7 -5 12 -15 10 -23 -2 -8 4 -13 14 -13 10 1 16 -2 13 -6 -2 -4 4 -25 15 -46
10 -22 20 -34 20 -29 0 6 5 2 11 -9 9 -15 13 -16 20 -5 7 11 9 11 9 1 0 -7 -7
-15 -15 -18 -12 -5 -12 -8 0 -20 7 -8 18 -14 24 -14 5 0 13 -9 16 -20 3 -11
12 -20 18 -20 7 0 4 -5 -5 -11 -16 -9 -16 -11 3 -30 11 -11 18 -27 15 -35 -5
-13 16 -31 39 -33 6 0 11 -10 11 -21 1 -11 12 -28 25 -38 22 -18 22 -20 6 -36
-17 -18 -24 -41 -9 -32 5 3 14 -4 22 -14 8 -10 18 -16 23 -13 5 3 4 -4 -3 -16
-10 -19 -8 -23 22 -36 18 -8 28 -14 22 -15 -17 0 -9 -39 12 -54 10 -8 19 -24
19 -35 0 -11 5 -21 10 -22 15 -3 33 -32 28 -45 -2 -7 5 -18 17 -24 17 -9 21
-19 18 -40 -2 -16 -1 -27 4 -24 4 3 8 0 8 -5 0 -6 9 -11 20 -11 17 0 18 -3 10
-26 -7 -17 -7 -23 1 -19 6 4 9 0 7 -11 -2 -11 2 -18 10 -17 6 2 12 -2 12 -8 0
-5 4 -7 10 -4 6 3 7 -1 4 -9 -3 -9 -11 -16 -18 -16 -6 0 -5 -4 4 -9 8 -6 17
-8 21 -5 4 2 10 0 14 -6 4 -6 12 -8 18 -4 7 3 4 -1 -6 -9 -16 -13 -15 -16 13
-48 16 -19 30 -39 30 -46 0 -7 8 -20 18 -30 9 -10 17 -27 17 -38 -1 -23 21
-49 33 -41 5 3 6 -8 4 -25 -3 -18 0 -29 7 -29 7 0 10 -4 7 -9 -3 -5 3 -11 13
-14 14 -3 18 -11 14 -25 -3 -14 1 -22 15 -26 16 -5 20 -14 17 -37 -3 -23 0
-32 13 -36 20 -5 48 -43 32 -43 -5 0 -10 -4 -10 -10 0 -5 8 -6 18 -3 14 6 15
4 4 -9 -10 -13 -9 -15 13 -13 22 3 24 1 14 -17 -9 -17 -9 -20 3 -16 8 3 23 -1
33 -9 19 -14 19 -15 -5 -8 -24 7 -24 7 -5 -11 10 -11 21 -20 24 -20 30 -7 51
-18 51 -26 0 -5 5 -6 11 -2 8 4 8 0 0 -14 -10 -19 -7 -24 26 -41 21 -11 34
-20 29 -21 -5 0 3 -9 18 -21 14 -11 26 -29 26 -39 0 -14 5 -18 18 -13 15 6 15
5 3 -10 -12 -15 -12 -17 3 -11 10 4 16 1 16 -9 0 -11 7 -15 21 -12 15 3 19 0
15 -10 -3 -10 0 -12 11 -8 11 4 14 2 9 -5 -4 -7 -3 -12 3 -12 6 0 8 -7 5 -15
-5 -11 -2 -13 12 -8 12 4 15 3 10 -5 -4 -7 -2 -12 4 -12 6 0 8 -5 4 -12 -5 -7
-2 -9 9 -5 8 3 18 0 21 -8 3 -8 0 -15 -7 -18 -7 -2 -1 -9 13 -16 14 -8 33 -23
42 -35 9 -11 22 -22 27 -22 6 -1 17 -2 24 -3 8 -1 7 -4 -3 -11 -12 -7 -13 -13
-3 -27 6 -10 16 -17 22 -15 7 1 14 -5 17 -13 3 -8 11 -12 17 -8 6 4 8 0 4 -11
-4 -9 -3 -15 2 -11 16 9 39 -6 45 -29 5 -22 56 -88 56 -73 0 5 16 -8 35 -29
27 -28 32 -40 23 -46 -9 -6 -5 -7 10 -3 18 5 22 2 22 -14 0 -12 9 -30 20 -41
11 -11 20 -17 20 -13 0 3 8 -3 18 -14 9 -11 27 -25 40 -32 23 -12 23 -13 5
-34 -16 -19 -16 -20 0 -8 10 8 17 9 17 3 0 -6 9 -14 20 -17 11 -3 20 -11 20
-18 0 -8 -3 -8 -12 1 -7 7 -16 12 -21 12 -5 0 1 -9 14 -19 17 -14 26 -16 31
-8 5 8 8 8 8 1 0 -5 7 -19 15 -30 15 -19 15 -19 9 1 -5 16 -4 17 5 5 6 -8 11
-22 11 -30 1 -8 19 -28 40 -45 22 -16 37 -35 35 -42 -2 -7 2 -10 11 -6 9 3 14
-2 14 -16 0 -15 4 -19 17 -14 12 5 15 2 10 -10 -4 -11 -2 -14 8 -11 10 4 12 0
8 -17 -4 -15 -3 -20 5 -15 11 6 16 -6 13 -26 0 -5 8 -8 20 -8 11 0 18 -4 14
-10 -3 -5 8 -16 25 -25 20 -10 30 -22 26 -31 -3 -8 1 -14 10 -14 8 0 12 -5 9
-10 -4 -6 8 -13 25 -17 18 -3 27 -9 20 -13 -7 -5 -5 -11 6 -21 12 -9 15 -10
10 -1 -4 6 -2 12 3 12 6 0 11 -7 11 -15 0 -8 5 -15 10 -15 7 0 7 -7 0 -20 -6
-11 -7 -20 -3 -19 4 1 15 1 23 0 13 -1 13 -2 0 -11 -8 -5 -10 -10 -5 -11 25
-2 45 -8 62 -18 16 -11 15 -11 -6 -5 -20 5 -15 -3 23 -40 26 -25 52 -46 57
-46 5 0 9 -5 9 -11 0 -5 -4 -8 -9 -5 -5 4 -7 -3 -4 -15 3 -11 11 -18 19 -15 8
3 11 0 7 -10 -3 -10 0 -12 10 -8 8 3 18 0 22 -5 3 -6 11 -9 16 -6 5 4 9 1 9
-4 0 -14 -13 -14 -28 1 -7 7 -12 9 -12 6 0 -4 14 -17 32 -29 17 -13 28 -18 24
-11 -5 8 -2 10 9 5 14 -5 14 -8 3 -15 -10 -8 -10 -11 0 -15 6 -2 10 -8 7 -13
-3 -4 6 -11 19 -14 14 -3 28 -15 31 -26 3 -11 10 -20 15 -20 5 0 16 -7 25 -16
13 -14 14 -19 3 -25 -10 -7 -10 -9 0 -9 6 0 12 -7 12 -16 0 -14 3 -14 15 -4
18 15 20 -1 3 -19 -9 -10 -9 -12 -1 -7 6 3 15 2 18 -4 5 -8 12 -7 23 2 10 7
14 9 10 4 -9 -10 9 -46 22 -46 6 0 10 5 10 11 0 5 -5 7 -12 3 -6 -4 -8 -3 -5
4 4 5 16 8 27 5 11 -3 20 0 20 6 0 7 12 1 27 -13 25 -23 28 -24 54 -10 31 16
52 19 29 4 -13 -8 -12 -10 3 -10 9 0 17 -4 17 -9 0 -10 45 -5 63 6 6 4 7 1 3
-6 -5 -7 -1 -18 10 -25 15 -11 23 -11 51 0 38 16 46 17 39 6 -3 -5 6 -15 19
-22 20 -11 27 -11 40 0 9 8 15 8 15 2 0 -6 9 -14 20 -17 11 -4 18 -11 14 -16
-3 -6 4 -5 15 3 12 7 20 20 18 29 -7 25 -272 446 -437 694 -349 522 -799 1136
-1076 1465 -62 74 -70 88 -61 108 6 12 14 22 18 22 4 0 22 15 39 33 l30 32
-25 22 c-14 12 -26 26 -28 30 -1 5 -6 7 -10 5 -5 -1 -6 2 -3 7 5 8 -115 157
-288 356 -362 418 -877 922 -1306 1281 -598 500 -1264 958 -2223 1527 -163 97
-299 177 -301 177 -2 0 -36 18 -75 40 -161 91 -151 87 -151 70z m3030 -2732
c0 -6 -6 -5 -15 2 -8 7 -15 14 -15 16 0 2 7 1 15 -2 8 -4 15 -11 15 -16z
m1360 -773 c8 -9 8 -15 0 -20 -5 -3 -10 1 -10 10 0 9 -4 14 -9 11 -5 -3 -14 1
-20 8 -10 12 -8 13 8 9 11 -3 25 -11 31 -18z m-29 -19 c24 14 5 -27 -20 -45
-36 -26 -40 -26 -38 -2 1 15 4 17 14 9 10 -8 12 -7 7 6 -3 9 -1 16 6 16 6 0 8
-4 5 -10 -3 -5 -1 -10 5 -10 8 0 10 10 6 28 -3 15 -3 21 0 14 3 -6 10 -10 15
-6z m-617 -452 c3 -8 2 -12 -4 -9 -6 3 -10 10 -10 16 0 14 7 11 14 -7z m1331
-1434 c3 -5 2 -10 -4 -10 -5 0 -13 5 -16 10 -3 6 -2 10 4 10 5 0 13 -4 16 -10z
m302 -362 c-3 -8 -6 -5 -6 6 -1 11 2 17 5 13 3 -3 4 -12 1 -19z m313 -78 c0
-5 -2 -10 -4 -10 -3 0 -8 5 -11 10 -3 6 -1 10 4 10 6 0 11 -4 11 -10z"/>
<path d="M9405 13790 c7 -12 112 -12 140 0 13 6 -7 9 -63 9 -53 1 -81 -3 -77
-9z"/>
<path d="M11040 11546 c0 -10 6 -13 17 -9 9 4 14 2 10 -3 -3 -6 -2 -16 4 -24
7 -12 9 -10 9 7 0 12 -9 27 -20 33 -16 8 -20 8 -20 -4z"/>
<path d="M10997 11502 c-10 -10 -17 -24 -17 -30 0 -7 -9 -12 -21 -12 -11 0
-18 -4 -15 -9 9 -14 55 -1 49 15 -3 8 1 14 8 15 8 1 23 2 33 3 11 0 21 7 24
15 3 10 0 11 -9 5 -14 -8 -49 -14 -49 -7 0 2 10 8 23 13 14 6 16 9 6 9 -9 1
-23 -7 -32 -17z"/>
<path d="M11005 11460 c3 -6 -5 -14 -19 -20 -16 -6 -24 -16 -23 -29 1 -15 4
-17 14 -9 15 12 17 22 3 13 -5 -3 -10 -1 -10 4 0 6 7 11 16 11 15 0 44 23 44
34 0 3 -7 6 -16 6 -8 0 -12 -5 -9 -10z"/>
<path d="M10913 11421 c-9 -15 -9 -19 0 -17 21 3 38 17 32 27 -9 14 -19 11
-32 -10z"/>
<path d="M8515 10701 c-3 -5 8 -16 24 -24 28 -14 31 -13 48 5 18 20 17 20 -4
14 -14 -5 -23 -3 -23 3 0 13 -37 15 -45 2z m46 -18 c13 -17 13 -17 -6 -3 -11
8 -22 16 -24 17 -2 2 0 3 6 3 6 0 17 -8 24 -17z"/>
<path d="M8474 10678 l-19 -23 23 19 c12 11 22 21 22 23 0 8 -8 2 -26 -19z"/>
<path d="M8439 10633 c-13 -16 -12 -17 4 -4 16 13 21 21 13 21 -2 0 -10 -8
-17 -17z"/>
<path d="M12300 9341 c0 -5 5 -13 10 -16 6 -3 10 -2 10 4 0 5 -4 13 -10 16 -5
3 -10 2 -10 -4z"/>
<path d="M13562 8034 c10 -10 20 -15 24 -12 3 4 -5 12 -18 18 -22 12 -22 12
-6 -6z"/>
<path d="M6474 7244 c13 -141 11 -357 -3 -399 -26 -75 -77 -121 -170 -154
l-55 -19 123 -80 c68 -44 119 -82 114 -85 -5 -3 -98 -22 -208 -42 -110 -20
-201 -38 -203 -39 -1 -2 17 -9 42 -16 48 -13 60 -12 251 25 182 36 262 70 323
139 51 58 56 88 48 311 -8 249 -10 257 -49 280 -18 11 -36 23 -42 27 -5 5 -48
33 -94 64 l-83 56 6 -68z"/>
<path d="M4625 6293 c-51 -53 -91 -141 -124 -276 -47 -189 -52 -172 58 -245
52 -34 98 -59 101 -55 4 5 21 64 40 133 39 147 62 198 128 277 l49 59 -108 72
-108 72 -36 -37z"/>
<path d="M14286 12541 c-3 -5 3 -11 15 -14 16 -4 18 -3 8 9 -13 16 -16 17 -23
5z"/>
<path d="M13440 10420 c0 -5 5 -10 11 -10 5 0 7 5 4 10 -3 6 -8 10 -11 10 -2
0 -4 -4 -4 -10z"/>
<path d="M15300 3948 c-185 -18 -365 -168 -432 -358 -19 -54 -22 -85 -22 -185
0 -104 4 -130 26 -192 30 -83 98 -184 160 -238 146 -125 388 -152 573 -65 123
59 223 175 271 316 50 148 32 345 -44 464 -122 193 -303 280 -532 258z m193
-257 c101 -49 153 -161 145 -311 -5 -89 -29 -151 -80 -212 -55 -65 -201 -91
-296 -53 -58 24 -118 95 -139 164 -23 77 -21 193 3 261 24 70 103 152 159 168
62 17 153 10 208 -17z"/>
<path d="M17180 3948 c-185 -18 -365 -168 -432 -358 -19 -54 -22 -85 -22 -185
0 -104 4 -130 26 -192 48 -134 157 -256 273 -308 141 -63 320 -61 460 5 124
59 223 175 271 316 22 66 26 96 26 184 0 126 -22 207 -81 296 -118 181 -297
264 -521 242z m196 -259 c101 -52 150 -159 142 -309 -5 -89 -29 -151 -80 -212
-55 -65 -201 -91 -296 -53 -58 24 -118 95 -139 164 -23 77 -21 193 3 261 24
70 103 152 159 168 65 18 155 10 211 -19z"/>
<path d="M4793 3929 c-72 -28 -154 -105 -183 -171 -32 -73 -33 -177 -3 -234
40 -75 109 -132 244 -200 130 -64 169 -97 169 -141 0 -61 -53 -96 -145 -97
-66 0 -138 28 -219 84 l-45 30 -15 -22 c-8 -13 -35 -57 -60 -98 l-46 -75 33
-28 c111 -97 341 -144 502 -102 153 40 233 123 258 269 8 50 7 71 -7 119 -26
90 -96 151 -281 246 -159 81 -184 103 -171 155 18 73 145 86 270 28 l66 -31
45 89 c25 49 45 94 45 99 0 18 -83 59 -160 80 -99 28 -225 28 -297 0z"/>
<path d="M19063 3929 c-72 -28 -154 -105 -183 -171 -32 -73 -33 -177 -3 -234
40 -75 109 -132 244 -200 130 -64 169 -97 169 -141 0 -61 -53 -96 -145 -97
-66 0 -138 28 -219 84 l-45 30 -15 -22 c-8 -13 -35 -57 -60 -98 l-46 -75 33
-28 c111 -97 341 -144 502 -102 153 40 233 123 258 269 8 50 7 71 -7 119 -26
90 -96 151 -281 246 -159 81 -184 103 -171 155 18 73 145 86 270 28 l66 -31
45 89 c25 49 45 94 45 99 0 18 -83 59 -160 80 -99 28 -225 28 -297 0z"/>
<path d="M960 3410 l0 -530 120 0 120 0 0 210 0 210 164 0 163 0 7 -37 c3 -21
6 -116 6 -210 l0 -173 120 0 120 0 0 530 0 530 -120 0 -120 0 -2 -212 -3 -213
-105 -3 c-58 -2 -133 0 -167 3 l-63 7 -2 206 -3 207 -117 3 -118 3 0 -531z"/>
<path d="M2240 3937 c0 -4 -393 -971 -414 -1019 l-16 -38 134 0 133 0 38 105
37 105 201 -2 200 -3 39 -103 40 -102 247 2 246 3 22 265 c12 146 22 285 23
310 l1 45 26 -65 c14 -36 63 -173 109 -304 47 -132 87 -242 90 -245 3 -3 36
-7 73 -9 l68 -4 52 148 c29 82 78 223 109 313 l57 164 7 -64 c4 -35 14 -149
22 -254 9 -104 18 -216 22 -247 l6 -58 119 0 c117 0 119 0 119 23 0 48 -90
1019 -96 1028 -3 5 -61 9 -129 9 l-123 0 -16 -39 c-8 -22 -56 -147 -107 -278
-50 -131 -96 -248 -103 -261 -11 -21 -21 0 -111 235 -54 142 -107 277 -118
301 l-18 43 -127 -3 -127 -3 -41 -462 c-23 -254 -46 -482 -50 -506 l-9 -45
-179 446 c-99 246 -192 475 -208 510 l-28 62 -110 0 c-60 0 -110 -1 -110 -3z
m230 -635 c0 -5 -220 4 -226 10 -2 2 18 60 45 129 26 68 51 133 55 144 6 15
22 -15 67 -129 32 -81 59 -151 59 -154z"/>
<path d="M4150 3410 l0 -530 120 0 120 0 -2 528 -3 527 -117 3 -118 3 0 -531z"/>
<path d="M5384 3925 c-3 -8 -4 -182 -1 -387 5 -450 11 -481 109 -574 83 -80
182 -110 340 -102 200 10 321 97 364 262 11 43 14 132 12 433 l-3 378 -117 3
-117 3 -3 -358 c-3 -335 -4 -361 -23 -397 -30 -58 -64 -79 -138 -84 -74 -4
-121 17 -152 69 -19 32 -20 58 -26 399 -3 201 -7 366 -8 368 0 1 -53 2 -116 2
-92 0 -117 -3 -121 -15z"/>
<path d="M6700 3411 l0 -531 193 0 c141 0 209 4 252 15 230 60 396 276 395
514 0 67 -26 178 -56 238 -54 111 -176 215 -308 261 -64 23 -91 25 -273 30
l-203 5 0 -532z m335 298 c65 -12 93 -26 148 -78 50 -47 76 -98 85 -169 25
-194 -85 -347 -259 -360 l-69 -5 0 312 c0 354 -11 320 95 300z"/>
<path d="M7957 3928 c-2 -7 -96 -238 -207 -513 -111 -275 -205 -508 -207 -517
-5 -17 6 -18 125 -18 l129 0 38 105 37 105 201 -2 200 -3 39 -102 40 -103 130
0 c100 0 129 3 125 13 -40 105 -386 956 -403 995 l-24 52 -109 0 c-78 0 -110
-4 -114 -12z m233 -626 c0 -5 -220 4 -226 10 -2 2 18 60 45 129 26 68 51 133
55 144 6 15 22 -15 67 -129 32 -81 59 -151 59 -154z"/>
<path d="M8650 3410 l0 -530 120 0 120 0 0 322 c0 200 4 318 9 312 6 -5 99
-148 209 -319 l199 -310 121 -3 122 -3 0 531 0 530 -120 0 -120 0 -2 -325 -3
-325 -129 203 c-72 111 -166 257 -210 325 l-81 122 -117 0 -118 0 0 -530z"/>
<path d="M9640 3830 l0 -110 125 0 125 0 0 -420 0 -420 125 0 125 0 0 420 0
419 123 3 122 3 3 35 c2 19 1 68 -3 108 l-7 72 -369 0 -369 0 0 -110z"/>
<path d="M10470 3410 l0 -530 120 0 120 0 -2 528 -3 527 -117 3 -118 3 0 -531z"/>
<path d="M10870 3410 l0 -530 120 0 120 0 0 322 c0 200 4 318 9 312 6 -5 99
-148 209 -319 l199 -310 121 -3 122 -3 0 531 0 530 -120 0 -120 0 -2 -325 -3
-325 -129 203 c-72 111 -166 257 -210 325 l-81 122 -117 0 -118 0 0 -530z"/>
<path d="M11920 3410 l0 -530 120 0 120 0 0 217 0 217 34 -33 c19 -18 105
-116 192 -217 l159 -184 168 0 169 0 -113 128 c-62 70 -147 165 -189 212 -42
47 -101 115 -132 151 l-57 65 190 224 c105 123 199 237 210 252 l20 28 -144 0
-144 0 -124 -147 c-68 -82 -148 -176 -179 -211 l-55 -62 -5 207 -5 208 -117 3
-118 3 0 -531z"/>
<path d="M12930 3410 l0 -530 120 0 120 0 -2 528 -3 527 -117 3 -118 3 0 -531z"/>
<path d="M13716 3928 c-3 -7 -23 -227 -46 -488 -22 -261 -43 -494 -47 -518
l-5 -43 123 3 124 3 22 265 c12 146 22 285 23 310 l1 45 26 -65 c14 -36 63
-173 109 -304 47 -132 87 -242 90 -245 3 -3 36 -7 73 -9 l68 -4 52 148 c29 82
78 223 109 313 l57 164 7 -64 c4 -35 14 -149 22 -254 9 -104 18 -216 22 -247
l6 -58 119 0 c117 0 119 0 119 23 0 48 -90 1019 -95 1028 -4 5 -62 9 -130 9
l-123 0 -16 -39 c-8 -22 -56 -147 -107 -278 -50 -131 -96 -248 -103 -261 -11
-21 -21 0 -111 235 -54 142 -107 277 -117 301 l-19 42 -125 0 c-91 0 -126 -3
-128 -12z"/>
<path d="M15940 3830 l0 -110 125 0 125 0 0 -420 0 -420 125 0 125 0 0 420 0
419 123 3 122 3 3 35 c2 19 1 68 -3 108 l-7 72 -369 0 -369 0 0 -110z"/>
<path d="M17890 3410 l0 -530 120 0 120 0 0 203 1 202 25 -30 c14 -16 86 -108
160 -202 l135 -173 155 0 154 0 -181 217 -181 217 46 23 c104 53 157 140 164
268 5 106 -20 176 -84 235 -89 82 -168 99 -451 100 l-183 0 0 -530z m405 306
c37 -24 56 -60 57 -105 1 -95 -39 -132 -149 -139 l-73 -5 0 138 0 138 70 -5
c40 -3 80 -12 95 -22z"/>
<path d="M2930 2835 c0 -8 4 -15 10 -15 5 0 7 7 4 15 -4 8 -8 15 -10 15 -2 0
-4 -7 -4 -15z"/>
<path d="M9100 1620 l0 -530 300 0 300 0 0 105 0 105 -180 0 -180 0 -2 423 -3
422 -117 3 -118 3 0 -531z"/>
<path d="M9750 2040 l0 -110 125 0 125 0 0 -420 0 -420 125 0 125 0 0 420 0
419 123 3 122 3 3 35 c2 19 1 68 -3 108 l-7 72 -369 0 -369 0 0 -110z"/>
<path d="M10590 1621 l0 -531 193 0 c216 0 270 9 371 63 285 151 364 547 158
793 -68 81 -157 143 -249 174 -59 19 -96 23 -270 28 l-203 5 0 -532z m335 298
c65 -12 93 -26 148 -78 50 -47 76 -98 85 -169 25 -194 -85 -347 -259 -360
l-69 -5 0 312 c0 354 -11 320 95 300z"/>
</g>
</svg>
